<svg width="40" height="40" viewBox="0 0 40 40" fill="none" xmlns="http://www.w3.org/2000/svg">
<rect width="40" height="40" rx="12" fill="#262626"/>
<path d="M28.9829 19.4448C28.8745 17.6916 28.2555 16.0084 27.202 14.6027C26.1486 13.1971 24.7069 12.1304 23.0546 11.5342C21.4023 10.938 19.6116 10.8384 17.9034 11.2476C16.1951 11.6568 14.644 12.557 13.4411 13.8371C12.2383 15.1173 11.4363 16.7214 11.1342 18.4518C10.832 20.1822 11.0428 21.9632 11.7406 23.5752C12.4384 25.1872 13.5927 26.5598 15.0611 27.5238C16.5296 28.4877 18.248 29.0009 20.0046 29H25.2366C26.2299 28.999 27.1822 28.604 27.8845 27.9017C28.5869 27.1993 28.9819 26.247 28.9829 25.2537V19.4448ZM27.4844 25.2537C27.4844 25.8499 27.2475 26.4216 26.826 26.8431C26.4045 27.2647 25.8327 27.5015 25.2366 27.5015H20.0046C18.9473 27.501 17.9021 27.2777 16.9369 26.8461C15.9718 26.4146 15.1084 25.7844 14.4032 24.9968C13.6945 24.2095 13.1624 23.2798 12.8424 22.2701C12.5225 21.2603 12.4221 20.1938 12.548 19.1421C12.7469 17.4832 13.4922 15.9377 14.6665 14.7492C15.8408 13.5607 17.3772 12.7968 19.0336 12.5779C19.3567 12.5374 19.682 12.5169 20.0076 12.5165C21.7537 12.5117 23.4458 13.1218 24.7871 14.2398C25.5704 14.8908 26.2134 15.6942 26.6771 16.6011C27.1407 17.5081 27.4154 18.4997 27.4844 19.516V25.2537Z" fill="#D4D4D4"/>
<path d="M16.9944 17.7612H19.9914C20.1901 17.7612 20.3807 17.6823 20.5212 17.5417C20.6617 17.4012 20.7406 17.2107 20.7406 17.0119C20.7406 16.8132 20.6617 16.6227 20.5212 16.4821C20.3807 16.3416 20.1901 16.2627 19.9914 16.2627H16.9944C16.7957 16.2627 16.6051 16.3416 16.4646 16.4821C16.3241 16.6227 16.2451 16.8132 16.2451 17.0119C16.2451 17.2107 16.3241 17.4012 16.4646 17.5417C16.6051 17.6823 16.7957 17.7612 16.9944 17.7612ZM22.9884 19.2597H16.9944C16.7957 19.2597 16.6051 19.3386 16.4646 19.4791C16.3241 19.6197 16.2451 19.8102 16.2451 20.0089C16.2451 20.2077 16.3241 20.3982 16.4646 20.5387C16.6051 20.6793 16.7957 20.7582 16.9944 20.7582H22.9884C23.1871 20.7582 23.3777 20.6793 23.5182 20.5387C23.6587 20.3982 23.7376 20.2077 23.7376 20.0089C23.7376 19.8102 23.6587 19.6197 23.5182 19.4791C23.3777 19.3386 23.1871 19.2597 22.9884 19.2597ZM22.9884 22.2567H16.9944C16.7957 22.2567 16.6051 22.3356 16.4646 22.4762C16.3241 22.6167 16.2451 22.8072 16.2451 23.006C16.2451 23.2047 16.3241 23.3952 16.4646 23.5358C16.6051 23.6763 16.7957 23.7552 16.9944 23.7552H22.9884C23.1871 23.7552 23.3777 23.6763 23.5182 23.5358C23.6587 23.3952 23.7376 23.2047 23.7376 23.006C23.7376 22.8072 23.6587 22.6167 23.5182 22.4762C23.3777 22.3356 23.1871 22.2567 22.9884 22.2567Z" fill="#D4D4D4"/>
</svg>
