<svg width="16" height="16" viewBox="0 0 16 16" fill="none" xmlns="http://www.w3.org/2000/svg">
<path d="M7.34472 1.876C7.37328 1.72307 7.45443 1.58494 7.57412 1.48555C7.6938 1.38615 7.84447 1.33174 8.00005 1.33174C8.15563 1.33174 8.3063 1.38615 8.42599 1.48555C8.54567 1.58494 8.62682 1.72307 8.65538 1.876L9.35605 5.58133C9.40581 5.84477 9.53383 6.08708 9.7234 6.27665C9.91297 6.46622 10.1553 6.59424 10.4187 6.644L14.1241 7.34467C14.277 7.37323 14.4151 7.45438 14.5145 7.57407C14.6139 7.69375 14.6683 7.84442 14.6683 8C14.6683 8.15558 14.6139 8.30625 14.5145 8.42594C14.4151 8.54562 14.277 8.62677 14.1241 8.65533L10.4187 9.356C10.1553 9.40576 9.91297 9.53378 9.7234 9.72335C9.53383 9.91292 9.40581 10.1552 9.35605 10.4187L8.65538 14.124C8.62682 14.2769 8.54567 14.4151 8.42599 14.5145C8.3063 14.6139 8.15563 14.6683 8.00005 14.6683C7.84447 14.6683 7.6938 14.6139 7.57412 14.5145C7.45443 14.4151 7.37328 14.2769 7.34472 14.124L6.64405 10.4187C6.59429 10.1552 6.46627 9.91292 6.2767 9.72335C6.08713 9.53378 5.84482 9.40576 5.58138 9.356L1.87605 8.65533C1.72312 8.62677 1.58499 8.54562 1.4856 8.42594C1.3862 8.30625 1.33179 8.15558 1.33179 8C1.33179 7.84442 1.3862 7.69375 1.4856 7.57407C1.58499 7.45438 1.72312 7.37323 1.87605 7.34467L5.58138 6.644C5.84482 6.59424 6.08713 6.46622 6.2767 6.27665C6.46627 6.08708 6.59429 5.84477 6.64405 5.58133L7.34472 1.876Z" stroke="#6EE7B7" stroke-linecap="round" stroke-linejoin="round"/>
<path d="M13.3334 1.33333V4" stroke="#6EE7B7" stroke-linecap="round" stroke-linejoin="round"/>
<path d="M14.6667 2.66667H12" stroke="#6EE7B7" stroke-linecap="round" stroke-linejoin="round"/>
<path d="M2.66671 14.6667C3.40309 14.6667 4.00004 14.0697 4.00004 13.3333C4.00004 12.597 3.40309 12 2.66671 12C1.93033 12 1.33337 12.597 1.33337 13.3333C1.33337 14.0697 1.93033 14.6667 2.66671 14.6667Z" stroke="#6EE7B7" stroke-linecap="round" stroke-linejoin="round"/>
</svg>
